<svg id="Layer_1" data-name="Layer 1" xmlns="http://www.w3.org/2000/svg" viewBox="0 0 531.49 219.43"><defs><style>.cls-1{fill:#e89c3d;}</style></defs><path d="M75.56,113.53c-19.19,0-31,13.19-31,32.22s11.79,31.7,30.63,31.7A59,59,0,0,0,99,172l4.76,10.45a65.65,65.65,0,0,1-28.52,6.51c-28.34,0-44.71-18-44.71-43.18,0-26.22,17.78-43.53,45.24-43.53a57.28,57.28,0,0,1,26.75,6.17l-4.93,10.79C91.93,115.41,82.78,113.53,75.56,113.53Z"/><path d="M133.47,104.62v82.6H119.92v-82.6Z"/><path d="M171.14,187.22H157.58v-82.6h13.56v10.62c8.09-7.54,17.77-13,29-13,16.72,0,27.28,11,27.28,30.33v54.67H213.73V134.09c0-14-6.33-20.56-16.54-20.56-9.86,0-18,4.8-26.05,13Z"/><path d="M330.08,58.52v128.7H317.23l-.53-15.94c-6,11-16.54,17.65-31.33,17.65-23.59,0-39.78-17.65-39.78-43.18,0-26.57,17.78-43.53,40.13-43.53,13.91,0,24.47,6.51,30.81,17.48V61.6ZM288.19,177.28c17.07,0,27.81-12.34,28.34-30.33V144.2c-.53-17.82-11.44-30.5-28.17-30.5-17.25,0-28.69,13.37-28.69,32.05C259.67,164.25,270.94,177.28,288.19,177.28Z"/><path d="M363.7,151.4c2.29,15.94,13.38,26,29.57,26,9.68,0,21.83-2.23,31.51-8.57l4.93,10.63c-11.09,6.17-21.48,9.42-36.62,9.42-26.75,0-43.65-17.82-43.65-43,0-26.22,17.07-43.7,40.49-43.7s41.71,17.31,41.71,44.38a31.91,31.91,0,0,1-.35,4.8Zm-.18-10.28h53.69c-1.76-16.62-12.5-27.42-26.93-27.42C375.14,113.7,364.93,124.84,363.52,141.12Z"/><path d="M498.88,116.44a24.83,24.83,0,0,0-8.8-1.37c-9,0-18.66,5.48-25.88,15.08v57.07H450.65v-82.6H464.2v12.51c8.45-10.29,16.9-14.4,27.29-14.4a30,30,0,0,1,9.5,1.54Z"/><path class="cls-1" d="M128.73,46.74c.53,15.59-24.08,16.8-4.22,43.38a.74.74,0,0,0,1.29-.6c-.67-14.58,21.93-18.63,4.22-43.41C129.57,45.48,128.7,45.92,128.73,46.74Z"/><path class="cls-1" d="M124.21,30.87c.21,6.16-9.52,6.64-1.67,17.15a.29.29,0,0,0,.51-.24c-.26-5.76,8.67-7.36,1.67-17.16C124.55,30.37,124.2,30.54,124.21,30.87Z"/></svg>