<svg id="Layer_1" data-name="Layer 1" xmlns="http://www.w3.org/2000/svg" viewBox="0 0 530.49 218.43"><defs><style>.cls-1{fill:#fff;}.cls-2{fill:#e89c3d;}</style></defs><path class="cls-1" d="M75.06,113c-19.19,0-31,13.19-31,32.22S55.87,177,74.71,177a59,59,0,0,0,23.76-5.48l4.76,10.45a65.65,65.65,0,0,1-28.52,6.51c-28.34,0-44.71-18-44.71-43.18,0-26.22,17.78-43.53,45.24-43.53A57.28,57.28,0,0,1,102,107.89l-4.92,10.79C91.43,114.91,82.28,113,75.06,113Z"/><path class="cls-1" d="M133,104.12v82.6H119.42v-82.6Z"/><path class="cls-1" d="M170.64,186.72H157.08v-82.6h13.56v10.62c8.09-7.54,17.77-13,29-13,16.72,0,27.28,11,27.28,30.33v54.67H213.23V133.59c0-14-6.33-20.56-16.54-20.56-9.86,0-18,4.8-26.05,13Z"/><path class="cls-1" d="M329.58,58v128.7H316.73l-.53-15.94c-6,11-16.54,17.65-31.33,17.65-23.59,0-39.78-17.65-39.78-43.18,0-26.57,17.78-43.53,40.13-43.53,13.91,0,24.47,6.51,30.81,17.48V61.1ZM287.69,176.78c17.07,0,27.81-12.34,28.34-30.33V143.7c-.53-17.82-11.44-30.5-28.17-30.5-17.25,0-28.69,13.37-28.69,32.05C259.17,163.75,270.44,176.78,287.69,176.78Z"/><path class="cls-1" d="M363.2,150.9c2.29,15.94,13.38,26,29.57,26,9.68,0,21.83-2.23,31.51-8.57L429.21,179c-11.09,6.17-21.48,9.42-36.62,9.42-26.75,0-43.65-17.82-43.65-43,0-26.22,17.07-43.7,40.49-43.7S431.14,119,431.14,146.1a31.91,31.91,0,0,1-.35,4.8ZM363,140.62h53.69C415,124,404.21,113.2,389.78,113.2,374.64,113.2,364.43,124.34,363,140.62Z"/><path class="cls-1" d="M498.38,115.94a24.83,24.83,0,0,0-8.8-1.37c-9,0-18.66,5.48-25.88,15.08v57.07H450.15v-82.6H463.7v12.51c8.45-10.29,16.9-14.4,27.29-14.4a30,30,0,0,1,9.5,1.54Z"/><path class="cls-2" d="M128.23,46.24c.53,15.59-24.08,16.8-4.22,43.38a.74.74,0,0,0,1.29-.6c-.67-14.58,21.93-18.63,4.22-43.41C129.07,45,128.2,45.42,128.23,46.24Z"/><path class="cls-2" d="M123.71,30.37c.21,6.16-9.52,6.64-1.67,17.15a.29.29,0,0,0,.51-.24c-.26-5.76,8.67-7.36,1.67-17.16C124.05,29.87,123.7,30,123.71,30.37Z"/></svg>